PathFileType	4	(X/Y/Z)	TVC_36_BWA_04_walk_RCNL2025.trc
DataRate	CameraRate	NumFrames	NumMarkers	Units	OrigDataRate	OrigDataStartFrame	OrigNumFrames
100	100	9	27	mm	100	522	695
Frame#	Time	R_Shoulder			L_Shoulder			C7			J_Notch			R_Elbow			L_Elbow			R_Wrist			L_Wrist			R_Asis			L_Asis			R_Psis			L_Psis			Sacral			Thoracic			Sternum			R_Thigh_Lateral			R_Knee_Lateral			R_Shank_Lateral			R_Ankle_Lateral			R_Heel			R_Toe			L_Thigh_Lateral			L_Knee_Lateral			L_Shank_Lateral			L_Ankle_Lateral			L_Heel			L_Toe		
		X1	Y1	Z1	X2	Y2	Z2	X3	Y3	Z3	X4	Y4	Z4	X5	Y5	Z5	X6	Y6	Z6	X7	Y7	Z7	X8	Y8	Z8	X9	Y9	Z9	X10	Y10	Z10	X11	Y11	Z11	X12	Y12	Z12	X13	Y13	Z13	X14	Y14	Z14	X15	Y15	Z15	X16	Y16	Z16	X17	Y17	Z17	X18	Y18	Z18	X19	Y19	Z19	X20	Y20	Z20	X21	Y21	Z21	X22	Y22	Z22	X23	Y23	Z23	X24	Y24	Z24	X25	Y25	Z25	X26	Y26	Z26	X27	Y27	Z27
522	5.21000000	1403.549072	1394.479370	396.671844	1290.382812	1377.531982	64.561005	1312.667725	1438.104248	243.059555	1460.533325	1311.901245	206.532089	1339.071533	1112.779785	501.248871	1280.038940	1092.851562	-62.694717	1413.439453	899.984131	490.085754	1473.939087	1005.709625	-21.279438	1437.872070	886.722595	316.051025	1345.352905	917.024536	75.670944	1254.121704	922.331848	305.606659	1221.198120	926.712341	228.628922	1237.659912	924.522095	267.117790	1266.482544	1150.206177	264.096680	1491.076172	1160.137085	178.241470	1456.748413	638.244934	406.089905	1515.094360	470.687469	322.804871	1476.195557	274.480682	390.882446	1468.938110	75.186493	331.844696	1421.690796	58.551823	284.279755	1593.101685	45.351105	296.304749	1290.097412	680.652710	-12.179938	1301.443726	479.628571	37.730633	1237.010986	285.738861	-12.750767	1288.113892	68.288307	22.740061	1243.430908	51.370411	63.443794	1414.216187	55.307560	66.224922
523	5.22000000	1408.699463	1395.281494	398.626587	1294.366089	1378.785034	67.338348	1317.351685	1439.256104	245.469864	1464.845459	1312.768555	208.329483	1344.663452	1113.995361	503.715271	1283.510010	1093.480835	-59.280445	1417.879883	900.479736	492.828339	1478.502197	1008.169189	-19.205465	1442.052246	887.767700	317.253967	1347.970825	917.918762	77.900406	1258.314575	924.238281	308.487366	1225.168335	927.915161	231.859329	1241.741455	926.076721	270.173347	1270.765381	1151.140137	266.939484	1495.325562	1160.889160	179.903076	1457.811157	637.712585	408.805542	1516.919678	470.454926	325.406799	1479.982788	273.833160	392.309143	1468.662598	74.064110	332.450409	1421.525879	58.654217	285.424530	1592.804199	45.371056	296.580017	1293.188843	681.305664	-9.923248	1306.729858	480.071350	39.821350	1239.683716	286.716034	-10.456056	1288.098145	68.836861	24.739914	1243.791382	52.171219	66.607597	1414.921265	55.329765	66.583534
524	5.23000000	1413.945435	1396.259521	400.389343	1298.237061	1379.978760	69.722023	1322.386841	1440.125122	248.106125	1469.280396	1313.676025	210.079208	1350.639038	1115.476318	506.584229	1286.993896	1094.162720	-55.801552	1422.620117	901.701843	495.714249	1482.680603	1010.245880	-16.709824	1445.932495	888.676331	318.873749	1350.779663	918.366821	80.449448	1262.952515	926.474487	311.843384	1229.087646	929.137329	235.034851	1246.020081	927.805908	273.439117	1275.435547	1152.701538	269.482697	1499.304932	1161.706909	181.197678	1458.269043	637.191284	411.085907	1517.564697	470.238220	327.474060	1481.320190	273.746643	393.466553	1468.492188	73.836815	333.087738	1421.344360	58.655396	286.107849	1592.613037	45.517853	296.920807	1296.540405	681.909241	-7.780468	1312.712524	480.731262	41.339123	1242.909790	287.553101	-7.720599	1288.372559	69.433327	28.451420	1244.342773	52.627644	70.488297	1415.749268	54.890434	67.153175
525	5.24000000	1418.860596	1396.987671	402.108063	1302.239502	1381.422852	72.074593	1327.164795	1441.210571	250.533554	1473.532104	1314.625977	211.803268	1356.340942	1117.078979	509.216888	1290.387085	1095.055054	-52.253460	1427.631165	903.006531	498.624588	1486.709473	1012.261322	-14.063643	1450.767212	890.510559	320.972198	1353.933472	918.957092	83.081268	1267.721313	928.142090	314.749969	1233.260986	930.440125	238.413986	1250.491150	929.291107	276.581978	1279.575195	1153.411133	271.863525	1503.088623	1162.702759	182.358551	1460.290894	637.366943	413.848450	1518.521362	470.117615	329.756042	1481.723877	273.390320	394.278320	1468.465332	73.826439	333.504669	1421.414429	58.755577	286.636353	1592.597534	45.450855	297.242218	1300.253784	682.793518	-5.671565	1318.984253	481.023315	43.468018	1247.026123	288.051849	-4.851221	1288.611938	69.947166	32.514072	1245.535400	53.409225	75.518394	1416.769653	54.218769	68.217018
526	5.25000000	1424.250854	1398.132080	403.993195	1306.085815	1382.626953	74.312859	1331.672485	1442.406006	252.816879	1477.614380	1315.562012	213.150482	1361.445679	1118.400513	511.755768	1293.719849	1095.691406	-48.690586	1432.834778	904.323608	501.867767	1490.647217	1014.049988	-11.248299	1455.871826	892.233215	323.621307	1357.152832	919.068054	85.661835	1272.431030	929.967712	318.048828	1237.375732	931.817627	241.607300	1254.903381	930.892670	279.828064	1283.612061	1154.943604	274.868378	1506.884277	1163.526123	183.684341	1462.800537	637.638550	416.352600	1518.699341	469.871796	331.631317	1480.470215	272.985443	395.300140	1469.131226	73.830139	334.118530	1421.500244	58.743176	286.916290	1592.771240	45.448864	297.848785	1303.592041	683.225342	-2.898568	1325.276733	480.956390	45.493263	1250.835083	288.571259	-0.876294	1289.104004	70.737289	36.684547	1246.977905	54.366108	80.992294	1417.920166	53.832787	69.317085
527	5.26000000	1429.319580	1399.148560	405.733887	1309.910034	1383.897949	76.460953	1335.847778	1443.343750	254.886917	1481.592163	1316.245728	214.737518	1366.330200	1119.659058	514.287476	1296.915161	1096.225830	-45.042377	1437.937500	905.806335	504.861786	1494.444214	1015.511902	-8.098235	1459.544189	893.289917	325.298523	1360.543091	918.975037	88.595589	1276.723999	931.224854	320.962952	1241.292358	932.774719	244.701111	1259.008179	931.999786	282.832031	1287.536255	1155.082031	276.912048	1510.401611	1164.380005	184.882050	1465.556030	638.069519	418.419556	1518.686523	469.613159	333.443024	1478.461914	272.329681	396.336884	1469.460571	73.851814	334.172852	1421.675293	58.822231	286.863098	1592.867676	45.297695	297.953888	1307.510132	683.149780	0.451555	1332.400269	481.317108	47.577553	1254.613892	289.573822	3.375164	1289.971802	71.684189	41.377991	1248.560547	55.453129	86.936676	1419.591675	53.742043	70.137199
528	5.27000000	1434.188599	1400.009399	407.322693	1313.690674	1385.177490	78.410522	1340.320435	1443.954956	256.524994	1485.436768	1317.082031	216.217987	1370.922974	1120.866943	516.720215	1300.214966	1096.552124	-41.658463	1442.576111	906.975494	507.598190	1498.099060	1016.637115	-4.935561	1463.119263	894.265564	327.627075	1364.004028	919.271057	91.346756	1280.855957	932.253479	323.924927	1245.777344	932.380737	247.353653	1263.316650	932.317108	285.639290	1291.277344	1155.956909	279.479736	1513.963623	1165.212158	186.035919	1468.661255	638.377136	420.645386	1518.999878	469.316589	334.731537	1477.601196	271.347717	396.591431	1469.677734	73.849457	333.873718	1421.759766	58.909073	286.548126	1593.034912	45.159039	297.705444	1312.719971	682.890747	2.948298	1339.388672	481.790924	49.799686	1258.013916	290.891663	8.091830	1291.134033	73.067642	45.927216	1250.735352	57.250961	92.773323	1421.125977	53.257893	70.771500
529	5.28000000	1438.736694	1400.735107	408.951721	1317.182861	1386.201904	80.429634	1344.121460	1445.321045	259.108887	1489.165161	1317.861816	217.627914	1375.673584	1121.977173	519.219421	1303.507324	1096.720581	-38.189266	1446.917542	907.922974	510.410126	1501.605469	1017.593567	-1.760267	1467.820801	895.785400	330.557587	1367.527832	919.508301	94.252296	1284.662109	932.616943	326.651520	1249.684814	933.511780	250.529083	1267.173462	933.064362	288.590302	1294.707764	1157.255493	281.936127	1517.404175	1166.111694	187.329865	1471.248413	638.330933	421.807434	1519.428589	468.997131	335.596954	1478.399902	270.537598	396.371979	1469.894897	73.792557	333.638672	1421.848511	59.090233	286.310913	1593.190552	45.084137	297.407043	1318.248901	683.200684	6.239694	1345.986328	482.190521	52.090672	1260.771240	291.945618	12.845345	1292.871216	74.230881	50.109791	1252.737671	58.418758	98.635620	1422.926514	52.857994	71.410362
530	5.29000000	1443.373535	1401.855469	410.764984	1320.694336	1387.114258	82.176979	1348.039307	1446.230591	261.196991	1492.879639	1318.604004	219.139954	1380.397461	1123.304810	521.556396	1306.720459	1096.646973	-34.973049	1451.270203	908.914886	513.055878	1505.070740	1018.245544	2.098231	1472.787842	897.470276	333.411499	1371.016602	919.767761	96.880630	1288.021118	933.064941	329.583252	1252.896362	934.157715	253.429321	1270.458740	933.611328	291.506287	1298.521240	1158.707031	284.212433	1520.727783	1166.882324	188.702148	1473.916382	637.665833	423.486389	1519.984619	468.628052	336.292297	1480.209106	270.241058	396.710724	1470.184082	73.910973	333.414795	1422.018433	59.182289	286.192688	1593.292358	44.993908	297.055939	1324.341797	683.481262	8.790351	1352.327148	482.700775	54.221218	1263.689331	292.892944	17.224630	1293.103027	75.261520	54.778954	1255.104370	60.090115	104.932281	1424.740112	52.677082	71.975182
